<?xml version="1.0" encoding="UTF-8"?>
<svg width="66px" height="58px" viewBox="0 0 66 58" version="1.1" xmlns="http://www.w3.org/2000/svg" xmlns:xlink="http://www.w3.org/1999/xlink">
    <!-- Generator: Sketch 43.2 (39069) - http://www.bohemiancoding.com/sketch -->
    <title>noun_997206_cc</title>
    <desc>Created with Sketch.</desc>
    <defs></defs>
    <g id="Page-1" stroke="none" stroke-width="1">
        <g id="noun_997206_cc" fill-rule="nonzero" fill="#E3E3E3">
            <path fill="#E3E3E3" d="M40.92,10.95 C41.2762236,11.3724978 41.2224978,12.0037763 40.8,12.36 C40.3775022,12.7162236 39.7462237,12.6624978 39.39,12.24 C35.6840695,7.9652114 30.2768058,5.54896627 24.62,5.64 C24.0677153,5.64 23.62,5.19228475 23.62,4.64 C23.62,4.08771525 24.0677153,3.64 24.62,3.64 C30.8668285,3.54713012 36.8345232,6.22343982 40.92,10.95 L40.92,10.95 Z M24.62,57.51 C15.21,57.51 7.05,52.51 3.14,45.26 L3.14,45.26 C1.54716272,42.3071378 0.712197555,39.0050739 0.71,35.65 L0.71,22.13 L0.71,22.13 L0.71,22.13 C0.71,10.05 11.45,0.22 24.65,0.22 C37.36,0.22 47.78,9.33 48.54,20.79 L64,17.81 C64.3100468,17.7531315 64.628758,17.8457801 64.86,18.06 C65.0935917,18.2735792 65.2122801,18.5851363 65.18,18.9 L64.42,26.49 C64.3733941,26.9497328 64.0178652,27.3176638 63.56,27.38 L52.35,28.88 L63.56,30.38 C64.0178652,30.4423362 64.3733941,30.8102672 64.42,31.27 L65.18,38.86 C65.2083527,39.14207 65.1156508,39.4229188 64.9249539,39.6326854 C64.734257,39.842452 64.4634878,39.9614214 64.18,39.96 L64,39.96 L48.5,37 C47.69,48.45 37.29,57.51 24.62,57.51 Z M48.55,27.35 L62.47,25.49 L63,20 L48.55,22.73 L48.55,27.35 Z M48.55,35.01 L63,37.72 L62.45,32.24 L48.55,30.38 L48.55,35.01 Z M2.71,21 L46.53,21 C46,10.53 36.34,2.13 24.62,2.13 C12.9,2.13 3.28,10.53 2.71,21 Z M34.41,24.44 C31.9854699,24.44 30.02,26.4054699 30.02,28.83 C30.02,31.2545301 31.9854699,33.22 34.41,33.22 C36.8345301,33.22 38.8,31.2545301 38.8,28.83 C38.7780502,26.4211054 36.8189946,24.4799 34.41,24.48 L34.41,24.44 Z M14.18,24.44 C12.4044107,24.44 10.8036574,25.5095892 10.1241689,27.1500197 C9.44468026,28.7904503 9.82027003,30.6786676 11.0758012,31.9341988 C12.3313324,33.18973 14.2195497,33.5653197 15.8599803,32.8858311 C17.5004108,32.2063426 18.57,30.6055893 18.57,28.83 C18.5480502,26.4211054 16.5889946,24.4799 14.18,24.48 L14.18,24.44 Z M30.69,50.82 C30.69,51.3722847 30.2422847,51.82 29.69,51.82 L11.95,51.82 C15.7302051,54.243704 20.1295582,55.5249678 24.62,55.51 C36.32,55.51 45.91,47.15 46.52,36.66 L46.2,36.6 L2.71,36.6 C2.85440864,39.1186944 3.51832144,41.5802788 4.66,43.83 L24.66,43.83 C25.2122847,43.83 25.66,44.2777153 25.66,44.83 C25.66,45.3822847 25.2122847,45.83 24.66,45.83 L5.82,45.83 C6.7986012,47.3079491 7.96502518,48.65253 9.29,49.83 L29.69,49.83 C30.238403,49.8299726 30.684516,50.2716245 30.69,50.82 Z M32.03,28.82 C32.03,30.1399606 33.1000394,31.21 34.42,31.21 C35.7399606,31.21 36.81,30.1399606 36.81,28.82 C36.81,27.5000394 35.7399606,26.43 34.42,26.43 C33.7721868,26.4217249 33.1487687,26.676797 32.6925473,27.1367887 C32.236326,27.5967805 31.9863935,28.2222769 32,28.87 L32.03,28.82 Z M11.8,28.82 C11.8,30.1399606 12.8700394,31.21 14.19,31.21 C15.5099606,31.21 16.58,30.1399606 16.58,28.82 C16.58,27.5000394 15.5099606,26.43 14.19,26.43 C13.5456412,26.4271628 12.9274365,26.6846309 12.4755826,27.1440157 C12.0237287,27.6034005 11.7765133,28.2257761 11.79,28.87 L11.8,28.82 Z" id="Shape"></path>
        </g>
    </g>
</svg>