<?xml version="1.0" encoding="UTF-8"?>
<svg width="28px" height="28px" viewBox="0 0 28 28" version="1.1" xmlns="http://www.w3.org/2000/svg" xmlns:xlink="http://www.w3.org/1999/xlink">
    <!-- Generator: Sketch 43.2 (39069) - http://www.bohemiancoding.com/sketch -->
    <title>noun_349962_cc</title>
    <desc>Created with Sketch.</desc>
    <defs></defs>
    <g id="Page-1" stroke-width="1" fill-rule="evenodd">
        <g id="noun_349962_cc" fill-rule="nonzero" fill="#E3E3E3">
            <g id="Group" transform="translate(0.000000, 0.637800)">
                <path d="M26.484375,0.1141531 C26.3325155,0.118661087 26.1909413,0.191963412 26.099609,0.3133719 C26.099609,0.3133719 23.259668,4.037425 19.621094,3.127825 C19.4212734,3.0776802 19.2111505,3.15521629 19.091797,3.3231375 C18.771687,3.7735375 18.3987,3.8233063 18.199219,3.7411062 C17.999737,3.6591062 17.794239,3.4453594 17.982422,2.7430594 C18.0196393,2.60542876 17.9963376,2.45845613 17.9183745,2.33908669 C17.8404113,2.21971724 17.7152013,2.13930349 17.574219,2.1180594 C15.57346,1.8185594 13.672269,1.9820625 12.132812,2.7137625 C10.593357,3.4454625 9.434521,4.7797281 9.019531,6.6610281 C3.9618402,7.1549795 0,11.426263 0,16.6122 C0,22.1292 4.4830746,26.6122 10,26.6122 C13.272942,26.6122 16.173021,25.02617 17.998047,22.590716 C19.346147,22.685451 20.935798,22.283792 22.255859,20.971575 C23.633545,19.602075 24.692507,17.28955 24.998047,13.64345 C25.0094906,13.5042335 24.9621818,13.3665765 24.8675744,13.2638068 C24.7729669,13.1610371 24.639686,13.102524 24.5,13.102434 C24.083333,13.102434 23.819115,12.997044 23.675781,12.889544 C23.532448,12.782044 23.5,12.685734 23.5,12.602434 C23.5,12.519434 23.53245,12.420872 23.675781,12.313372 C23.819115,12.205872 24.083333,12.102434 24.5,12.102434 C25.152842,12.102434 25.721378,11.784103 26.142578,11.332903 C26.563778,10.881803 26.870898,10.299575 27.119141,9.659075 C27.615625,8.378075 27.864799,6.8527406 27.996094,5.6688406 C28.0182681,5.46587161 27.9148167,5.26980796 27.7347561,5.1735465 C27.5546954,5.07728504 27.3341966,5.10016301 27.177734,5.2313406 C26.62736,5.6958406 25.553766,5.8953719 24.59375,6.0008719 C26.011262,4.3895719 27,2.4431 27,0.6122 C26.9995247,0.477183168 26.9444709,0.348096355 26.847358,0.254294128 C26.7502451,0.160491901 26.6193271,0.109946883 26.484375,0.1141531 L26.484375,0.1141531 Z M25.603516,2.1356375 C25.205539,3.5985375 24.456763,5.1166469 23.171875,6.2352469 C23.0148016,6.37220014 22.9591301,6.59220719 23.0321593,6.78738656 C23.1051886,6.98256592 23.2916056,7.11199196 23.5,7.1122 C24.313977,7.1122 25.650595,6.9249469 26.814453,6.4227469 C26.670655,7.387147 26.52507,8.426747 26.1875,9.297747 C25.96791,9.864347 25.698747,10.342163 25.410156,10.651262 C25.121566,10.960362 24.847158,11.102434 24.5,11.102434 C23.916667,11.102434 23.430885,11.247044 23.074219,11.514544 C22.717552,11.782044 22.5,12.185734 22.5,12.602434 C22.5,13.019034 22.717552,13.420872 23.074219,13.688372 C23.286259,13.847372 23.625422,13.866766 23.921875,13.934466 C23.583512,17.149066 22.659212,19.160791 21.550781,20.262591 C20.633842,21.1741 19.607742,21.533087 18.660156,21.590716 C19.506918,20.122868 20,18.42624 20,16.6122 C20,11.118383 15.553525,6.653405 10.068359,6.6161062 C10.461294,5.1611399 11.3336,4.2011992 12.560547,3.6180594 C13.764188,3.0459594 15.33782,2.901175 17.033203,3.096575 C17.035203,3.815675 17.274009,4.4407344 17.818359,4.6649344 C18.433533,4.9182344 19.135648,4.6499219 19.664062,4.0946219 C22.552197,4.6597219 24.431344,3.2844375 25.603516,2.1356375 Z M10,7.6122 C14.976485,7.6122 19,11.6357 19,16.6122 C19,21.5887 14.976485,25.6122 10,25.6122 C5.0235148,25.6122 1,21.5887 1,16.6122 C1,11.6357 5.0235148,7.6122 10,7.6122 Z M12,12.1122 L12,13.1122 L12.792969,13.1122 L10.257812,15.647356 C10.1737725,15.6244593 10.0871017,15.6126406 10,15.6122 C9.64371528,15.6131786 9.31486069,15.8036464 9.136719,16.1122 L4.7128906,16.1122 L5.2675781,15.557512 L4.5605469,14.850481 L2.7929688,16.618059 L4.5605469,18.385638 L5.2675781,17.678606 L4.7011719,17.1122 L9.134766,17.1122 C9.31325735,17.4213563 9.64301718,17.6119174 10,17.6122 C10.5522847,17.6122 11,17.1644847 11,16.6122 C10.9995594,16.5250983 10.9877407,16.4384275 10.964844,16.354388 L13.5,13.819231 L13.5,14.6122 L14.5,14.6122 L14.5,12.1122 L12,12.1122 Z" id="Shape"></path>
            </g>
        </g>
    </g>
</svg>